<svg width="579" height="637" viewBox="0 0 579 637" fill="none" xmlns="http://www.w3.org/2000/svg">
<path d="M46.3904 551.488C-13.2373 496.865 -49.701 421.495 -55.5195 340.84C-61.3379 260.185 -36.0699 180.361 15.1004 117.745C66.2706 55.1297 139.463 14.4704 219.661 4.10927C299.859 -6.25185 380.982 14.4708 446.386 62.0257" stroke="url(#paint0_linear)" stroke-width="3" stroke-linecap="round" stroke-linejoin="round"/>
<path d="M479.543 546.184C429.027 594.787 363.807 625.247 294.112 632.788C224.418 640.328 154.193 624.522 94.4503 587.848" stroke="url(#paint1_linear)" stroke-width="3" stroke-linecap="round" stroke-linejoin="round"/>
<path d="M498.385 109.657C513.39 126.793 526.502 145.499 537.492 165.449" stroke="url(#paint2_linear)" stroke-width="3" stroke-linecap="round" stroke-linejoin="round"/>
<path d="M562.453 224.544C572.095 255.674 576.871 288.107 576.614 320.696" stroke="url(#paint3_linear)" stroke-width="3" stroke-linecap="round" stroke-linejoin="round"/>
<path d="M568.183 390.817C560.348 424.06 547.185 455.816 529.205 484.854" stroke="url(#paint4_linear)" stroke-width="3" stroke-linecap="round"/>
<defs>
<linearGradient id="paint0_linear" x1="588.625" y1="283.859" x2="97.5491" y2="283.859" gradientUnits="userSpaceOnUse">
<stop stop-color="#E3B873"/>
<stop offset="1" stop-color="#E3B873" stop-opacity="0"/>
</linearGradient>
<linearGradient id="paint1_linear" x1="588.465" y1="283.859" x2="97.3891" y2="283.859" gradientUnits="userSpaceOnUse">
<stop stop-color="#E3B873"/>
<stop offset="1" stop-color="#E3B873" stop-opacity="0"/>
</linearGradient>
<linearGradient id="paint2_linear" x1="588.625" y1="283.996" x2="97.5491" y2="283.996" gradientUnits="userSpaceOnUse">
<stop stop-color="#E3B873"/>
<stop offset="1" stop-color="#E3B873" stop-opacity="0"/>
</linearGradient>
<linearGradient id="paint3_linear" x1="588.465" y1="283.996" x2="97.3891" y2="283.996" gradientUnits="userSpaceOnUse">
<stop stop-color="#E3B873"/>
<stop offset="1" stop-color="#E3B873" stop-opacity="0"/>
</linearGradient>
<linearGradient id="paint4_linear" x1="588.465" y1="283.996" x2="97.3891" y2="283.996" gradientUnits="userSpaceOnUse">
<stop stop-color="#E3B873"/>
<stop offset="1" stop-color="#E3B873" stop-opacity="0"/>
</linearGradient>
</defs>
</svg>
