<svg width="1433" height="2621" viewBox="0 0 1433 2621" fill="none" xmlns="http://www.w3.org/2000/svg">
<mask id="path-1-outside-1" maskUnits="userSpaceOnUse" x="-1.0404" y="0.146422" width="1434" height="2621" fill="black">
<rect fill="white" x="-1.0404" y="0.146422" width="1434" height="2621"/>
<path d="M1431.96 2616.94C1423.13 2601.75 1413.84 2584.04 1404.08 2562.95C1383.63 2517.4 1365.05 2454.98 1349.25 2379.06C1341.35 2341.1 1333.92 2299.77 1325.09 2257.59C1316.26 2214.57 1306.5 2169.87 1292.56 2126C1288.84 2115.04 1285.13 2104.91 1281.41 2093.95C1277.69 2082.98 1273.04 2072.86 1268.4 2061.89L1265.14 2054.3C1264.22 2051.77 1262.82 2049.24 1261.43 2046.71C1259.1 2041.65 1256.78 2036.59 1253.99 2032.37C1251.67 2027.31 1249.35 2022.25 1246.56 2017.19C1243.77 2012.97 1240.98 2007.91 1238.19 2003.69C1216.35 1966.58 1189.87 1935.36 1161.06 1910.06C1132.25 1884.75 1101.58 1865.35 1070.45 1843.42C1039.32 1822.33 1008.65 1798.71 980.304 1765.81L969.617 1753.16C965.899 1748.94 963.111 1743.88 959.394 1739.67L949.636 1725.33L939.878 1709.3L935.231 1700.86L932.908 1696.64L931.514 1694.96C931.05 1694.11 931.514 1694.96 931.05 1694.11L930.585 1693.27L922.221 1675.56C919.433 1669.65 916.18 1664.59 913.857 1657.84L905.958 1639.28C895.735 1613.98 886.906 1586.99 879.007 1558.31C875.29 1543.97 871.572 1529.63 867.855 1514.44C864.602 1499.26 860.885 1484.92 858.097 1469.74C845.551 1409 834.864 1344.89 819.065 1283.31L813.024 1260.54C811.166 1252.95 808.842 1245.36 806.519 1237.76C802.337 1222.58 797.226 1208.24 792.114 1193.9C790.72 1190.53 789.791 1186.31 788.397 1182.93L784.215 1172.81L775.386 1151.72C772.598 1144.98 769.346 1139.07 766.093 1132.32L756.8 1112.92C730.314 1064 697.787 1025.19 663.866 996.514C629.946 966.99 595.096 946.745 561.64 923.126C553.276 917.222 545.377 910.474 537.013 904.569C529.113 897.821 521.214 891.072 513.315 884.324C497.981 869.14 483.111 853.113 470.101 834.556C443.15 797.44 420.381 751.046 403.189 700.434C368.339 598.367 355.328 478.585 327.448 371.457C325.589 364.709 324.196 357.96 322.337 351.212C320.478 344.464 318.619 338.559 316.761 331.811C313.044 318.314 308.862 306.505 304.215 293.852C301.891 287.947 300.033 281.199 297.71 275.294C295.386 269.389 292.598 263.485 290.275 257.58C287.952 251.675 285.164 245.771 282.84 239.866C280.517 234.805 277.729 229.743 275.406 224.682C254.496 182.506 230.333 147.077 205.706 120.084C180.614 93.0914 155.522 73.6901 131.824 56.8195C108.126 39.9489 85.3571 25.6088 65.3765 11.2688C61.1945 7.89468 57.0125 4.52055 52.8304 1.14642L0.323242 1.14642L0.323241 28.1394C16.5865 43.323 34.2438 56.8195 52.8304 70.316C74.2051 85.4996 96.9738 98.9961 120.207 114.18C143.44 130.207 167.138 147.077 189.442 170.696C212.211 194.315 233.586 224.682 252.637 261.798C254.96 266.859 257.748 271.92 260.072 276.981C262.395 282.042 264.254 287.104 266.577 292.165C268.9 297.226 270.759 302.287 273.082 307.348C275.406 312.41 277.264 318.314 279.123 323.375C283.305 334.341 287.022 345.307 290.739 357.117C292.598 363.021 294.457 368.926 296.316 374.831C298.174 380.736 299.568 387.484 301.427 393.389C314.902 443.157 325.589 497.987 337.206 554.503C348.823 611.02 362.298 670.067 381.814 724.896C401.33 779.726 426.422 829.495 456.161 869.14C471.495 889.385 487.293 906.256 503.557 921.439C511.921 928.188 520.285 935.779 528.649 942.528C537.013 948.432 545.841 955.181 554.205 961.085C588.591 984.704 622.976 1004.11 655.502 1031.1C688.029 1057.25 718.232 1091.83 743.789 1137.38L753.082 1155.1C755.87 1161 759.588 1166.91 762.376 1173.66L770.275 1192.21L774.457 1201.49C775.851 1204.87 776.78 1208.24 778.174 1211.61C782.821 1225.11 787.932 1238.61 792.114 1252.95C794.438 1259.7 796.296 1267.29 798.62 1274.04L804.66 1295.97C819.994 1355.01 831.146 1417.44 844.622 1479.01C847.874 1494.2 851.592 1509.38 855.309 1524.56C859.026 1539.75 863.208 1554.93 866.926 1569.27C875.754 1598.8 885.048 1627.48 896.2 1652.78L904.564 1672.18C907.352 1678.93 910.604 1683.99 913.392 1690.74L922.686 1708.45L923.15 1709.3L924.08 1710.99L925.473 1712.67L927.797 1716.89L932.443 1724.48L942.201 1740.51L952.889 1755.69C956.606 1760.75 959.859 1765.81 963.576 1770.03L974.728 1782.69C1004.47 1816.43 1036.53 1839.2 1068.13 1859.45C1099.26 1879.69 1129.93 1898.25 1158.27 1922.71C1186.62 1946.33 1212.17 1975.85 1234.01 2012.13C1236.8 2016.34 1239.59 2021.4 1242.38 2025.62C1244.7 2029.84 1247.49 2034.9 1249.81 2039.96C1252.13 2045.02 1254.92 2049.24 1257.25 2054.3C1258.64 2056.83 1259.57 2059.36 1260.96 2061.89L1264.22 2069.49C1268.4 2079.61 1273.04 2088.89 1276.76 2099.85C1280.48 2110.82 1284.2 2120.94 1287.91 2131.06C1301.85 2173.24 1312.08 2217.95 1321.37 2260.12C1330.66 2302.3 1338.1 2343.63 1346.93 2380.75C1363.19 2456.67 1383.17 2519.09 1403.61 2563.8C1412.91 2584.04 1422.2 2601.75 1431.03 2616.09L1431.96 2616.09L1431.96 2616.94Z"/>
</mask>
<path d="M1431.96 2616.94C1423.13 2601.75 1413.84 2584.04 1404.08 2562.95C1383.63 2517.4 1365.05 2454.98 1349.25 2379.06C1341.35 2341.1 1333.92 2299.77 1325.09 2257.59C1316.26 2214.57 1306.5 2169.87 1292.56 2126C1288.84 2115.04 1285.13 2104.91 1281.41 2093.95C1277.69 2082.98 1273.04 2072.86 1268.4 2061.89L1265.14 2054.3C1264.22 2051.77 1262.82 2049.24 1261.43 2046.71C1259.1 2041.65 1256.78 2036.59 1253.99 2032.37C1251.67 2027.31 1249.35 2022.25 1246.56 2017.19C1243.77 2012.97 1240.98 2007.91 1238.19 2003.69C1216.35 1966.58 1189.87 1935.36 1161.06 1910.06C1132.25 1884.75 1101.58 1865.35 1070.45 1843.42C1039.32 1822.33 1008.65 1798.71 980.304 1765.81L969.617 1753.16C965.899 1748.94 963.111 1743.88 959.394 1739.67L949.636 1725.33L939.878 1709.3L935.231 1700.86L932.908 1696.64L931.514 1694.96C931.05 1694.11 931.514 1694.96 931.05 1694.11L930.585 1693.27L922.221 1675.56C919.433 1669.65 916.18 1664.59 913.857 1657.84L905.958 1639.28C895.735 1613.98 886.906 1586.99 879.007 1558.31C875.29 1543.97 871.572 1529.63 867.855 1514.44C864.602 1499.26 860.885 1484.92 858.097 1469.74C845.551 1409 834.864 1344.89 819.065 1283.31L813.024 1260.54C811.166 1252.95 808.842 1245.36 806.519 1237.76C802.337 1222.58 797.226 1208.24 792.114 1193.9C790.72 1190.53 789.791 1186.31 788.397 1182.93L784.215 1172.81L775.386 1151.72C772.598 1144.98 769.346 1139.07 766.093 1132.32L756.8 1112.92C730.314 1064 697.787 1025.19 663.866 996.514C629.946 966.99 595.096 946.745 561.64 923.126C553.276 917.222 545.377 910.474 537.013 904.569C529.113 897.821 521.214 891.072 513.315 884.324C497.981 869.14 483.111 853.113 470.101 834.556C443.15 797.44 420.381 751.046 403.189 700.434C368.339 598.367 355.328 478.585 327.448 371.457C325.589 364.709 324.196 357.96 322.337 351.212C320.478 344.464 318.619 338.559 316.761 331.811C313.044 318.314 308.862 306.505 304.215 293.852C301.891 287.947 300.033 281.199 297.71 275.294C295.386 269.389 292.598 263.485 290.275 257.58C287.952 251.675 285.164 245.771 282.84 239.866C280.517 234.805 277.729 229.743 275.406 224.682C254.496 182.506 230.333 147.077 205.706 120.084C180.614 93.0914 155.522 73.6901 131.824 56.8195C108.126 39.9489 85.3571 25.6088 65.3765 11.2688C61.1945 7.89468 57.0125 4.52055 52.8304 1.14642L0.323242 1.14642L0.323241 28.1394C16.5865 43.323 34.2438 56.8195 52.8304 70.316C74.2051 85.4996 96.9738 98.9961 120.207 114.18C143.44 130.207 167.138 147.077 189.442 170.696C212.211 194.315 233.586 224.682 252.637 261.798C254.96 266.859 257.748 271.92 260.072 276.981C262.395 282.042 264.254 287.104 266.577 292.165C268.9 297.226 270.759 302.287 273.082 307.348C275.406 312.41 277.264 318.314 279.123 323.375C283.305 334.341 287.022 345.307 290.739 357.117C292.598 363.021 294.457 368.926 296.316 374.831C298.174 380.736 299.568 387.484 301.427 393.389C314.902 443.157 325.589 497.987 337.206 554.503C348.823 611.02 362.298 670.067 381.814 724.896C401.33 779.726 426.422 829.495 456.161 869.14C471.495 889.385 487.293 906.256 503.557 921.439C511.921 928.188 520.285 935.779 528.649 942.528C537.013 948.432 545.841 955.181 554.205 961.085C588.591 984.704 622.976 1004.11 655.502 1031.1C688.029 1057.25 718.232 1091.83 743.789 1137.38L753.082 1155.1C755.87 1161 759.588 1166.91 762.376 1173.66L770.275 1192.21L774.457 1201.49C775.851 1204.87 776.78 1208.24 778.174 1211.61C782.821 1225.11 787.932 1238.61 792.114 1252.95C794.438 1259.7 796.296 1267.29 798.62 1274.04L804.66 1295.97C819.994 1355.01 831.146 1417.44 844.622 1479.01C847.874 1494.2 851.592 1509.38 855.309 1524.56C859.026 1539.75 863.208 1554.93 866.926 1569.27C875.754 1598.8 885.048 1627.48 896.2 1652.78L904.564 1672.18C907.352 1678.93 910.604 1683.99 913.392 1690.74L922.686 1708.45L923.15 1709.3L924.08 1710.99L925.473 1712.67L927.797 1716.89L932.443 1724.48L942.201 1740.51L952.889 1755.69C956.606 1760.75 959.859 1765.81 963.576 1770.03L974.728 1782.69C1004.47 1816.43 1036.53 1839.2 1068.13 1859.45C1099.26 1879.69 1129.93 1898.25 1158.27 1922.71C1186.62 1946.33 1212.17 1975.85 1234.01 2012.13C1236.8 2016.34 1239.59 2021.4 1242.38 2025.62C1244.7 2029.84 1247.49 2034.9 1249.81 2039.96C1252.13 2045.02 1254.92 2049.24 1257.25 2054.3C1258.64 2056.83 1259.57 2059.36 1260.96 2061.89L1264.22 2069.49C1268.4 2079.61 1273.04 2088.89 1276.76 2099.85C1280.48 2110.82 1284.2 2120.94 1287.91 2131.06C1301.85 2173.24 1312.08 2217.95 1321.37 2260.12C1330.66 2302.3 1338.1 2343.63 1346.93 2380.75C1363.19 2456.67 1383.17 2519.09 1403.61 2563.8C1412.91 2584.04 1422.2 2601.75 1431.03 2616.09L1431.96 2616.09L1431.96 2616.94Z" stroke="#181818" stroke-opacity="0.1" stroke-width="2" mask="url(#path-1-outside-1)"/>
</svg>
